# xmcd
#
# Track frame offsets: 
#        150
#        12615
#        23177
#        33310
#        46315
#        55385
#        64555
#        73685
#        81240
#        89742
#
# Disc length: 1332 seconds
#
# Revision: 0
# Processed by: cddbd v1.4PL0 Copyright (c) Steve Scherf et al.
# Submitted via: ExactAudioCopy v0.90a11
#
DISCID=8705320a
DTITLE=Mac Davis - Country Spotlight
DYEAR=1900
DGENRE=
TTITLE0=Standing In The Need Of Love
TTITLE1=Hey Monkey
TTITLE2=Looking At Linda
TTITLE3=Poor Loser
TTITLE4=Why Can't I Be Like The Others
TTITLE5=Boys Ain't Supposed To Cry
TTITLE6=Be A Good Little Girl While I'm Gone
TTITLE7=Weep Little Girl,Weep
TTITLE8=Don't Say No
TTITLE9=Work
EXTD=Ripped By Scanner1
EXTT0=
EXTT1=
EXTT2=
EXTT3=
EXTT4=
EXTT5=
EXTT6=
EXTT7=
EXTT8=
EXTT9=
PLAYORDER=
